<!DOCTYPE svg PUBLIC "-//W3C//DTD SVG 1.1//EN" "https://www.w3.org/Graphics/SVG/1.1/DTD/svg11.dtd">
<svg xmlns="http://www.w3.org/2000/svg" id="sfn-svg" class="sfn-workflow-graph" width="653" height="450">  
<g transform="translate(47,19.875)"><g class="nodes"><g class="node-container" transform="translate(257.412504196167,19)"><g class="node anchor"><circle class="shape" x="-16.875" y="-9" r="26.875"/><text class="label"><tspan xml:space="preserve" text-anchor="middle" alignment-baseline="central">Start</tspan></text></g></g><g class="node-container" transform="translate(257.412504196167,394)"><g class="node anchor"><circle class="shape" x="-13.175000190734863" y="-9" r="23.175000190734863"/><text class="label"><tspan xml:space="preserve" text-anchor="middle" alignment-baseline="central">End</tspan></text></g></g><g class="node-container" transform="translate(257.412504196167,82)"><g class="node state Task NotYetStarted"><rect class="shape" rx="5" ry="5" x="-50.641666412353516" y="-19" width="101.28333282470703" height="38"/><text class="label"><tspan xml:space="preserve" text-anchor="middle" alignment-baseline="central">LambdaTask</tspan></text></g></g><g class="node-container" transform="translate(257.412504196167,145)"><g class="node state Choice NotYetStarted"><rect class="shape" rx="5" ry="5" x="-52.04166793823242" y="-19" width="104.08333587646484" height="38"/><text class="label"><tspan xml:space="preserve" text-anchor="middle" alignment-baseline="central">DecisionStep</tspan></text></g></g><g class="node-container" transform="translate(378.2750053405762,238)"><g class="node state Task NotYetStarted"><rect class="shape" rx="5" ry="5" x="-65.17499923706055" y="-19" width="130.3499984741211" height="38"/><text class="label"><tspan xml:space="preserve" text-anchor="middle" alignment-baseline="central">EulerFargateTask</tspan></text></g></g><g class="node-container" transform="translate(538.3583374023438,238)"><g class="node state Task NotYetStarted"><rect class="shape" rx="5" ry="5" x="-54.90833282470703" y="-19" width="109.81666564941406" height="38"/><text class="label"><tspan xml:space="preserve" text-anchor="middle" alignment-baseline="central">PiFargateTask</tspan></text></g></g><g class="node-container" transform="translate(136.5500030517578,238)"><g class="node state Parallel NotYetStarted Container" transform="translate(-136.5500030517578,-49)"><rect class="shape" rx="19.6" ry="19.6" x="0" y="0" width="273.1000061035156" height="98"/><g class="branches" transform="translate(20,40)"><g class="branch" transform="translate(0,0)"><g class="nodes"><g class="node-container" transform="translate(48.141666412353516,19)"><g class="node state Pass NotYetStarted"><rect class="shape" rx="5" ry="5" x="-48.141666412353516" y="-19" width="96.28333282470703" height="38"/><text class="label"><tspan xml:space="preserve" text-anchor="middle" alignment-baseline="central">staticPiTask</tspan></text></g></g></g><g class="edges"/></g><g class="branch" transform="translate(116.28333282470703,0)"><g class="nodes"><g class="node-container" transform="translate(58.40833282470703,19)"><g class="node state Pass NotYetStarted"><rect class="shape" rx="5" ry="5" x="-58.40833282470703" y="-19" width="116.81666564941406" height="38"/><text class="label"><tspan xml:space="preserve" text-anchor="middle" alignment-baseline="central">staticEulerTask</tspan></text></g></g></g><g class="edges"/></g></g><path class="path" style="fill: none;" marker-end="url(#arrowhead49)" d="M136.5500030517578,0L136.55000305175778,3.333333333333333C136.5500030517578,6.666666666666666,136.5500030517578,13.333333333333332,125.14861361185707,16.666666666666664C113.74722417195636,20,90.94444529215494,20,79.54305585225423,23.33333333333333C68.14166641235352,26.666666666666664,68.14166641235352,33.33333333333333,68.1416664123535,36.666666666666664L68.14166641235352,40"/><path class="path" style="fill: none;" marker-end="url(#arrowhead50)" d="M136.5500030517578,0L136.55000305175778,3.333333333333333C136.5500030517578,6.666666666666666,136.5500030517578,13.333333333333332,146.24028015136716,16.666666666666664C155.93055725097656,20,175.3111114501953,20,185.00138854980466,23.33333333333333C194.69166564941406,26.666666666666664,194.69166564941406,33.33333333333333,194.69166564941403,36.666666666666664L194.69166564941406,40"/></g></g><g class="node-container" transform="translate(257.412504196167,331)"><g class="node state Pass NotYetStarted"><rect class="shape" rx="5" ry="5" x="-53.96666717529297" y="-19" width="107.93333435058594" height="38"/><text class="label"><tspan xml:space="preserve" text-anchor="middle" alignment-baseline="central">FinishingStep</tspan></text></g></g></g><g class="edges"><g class="edge"><path class="path" style="fill: none;" marker-end="url(#arrowhead51)" d="M257.412504196167,101L257.412504196167,103.08333333333331C257.412504196167,105.16666666666666,257.412504196167,109.33333333333331,257.412504196167,113.49999999999999C257.412504196167,117.66666666666666,257.412504196167,121.83333333333333,257.412504196167,123.91666666666666L257.412504196167,126"/><defs><marker id="arrowhead51" viewBox="0 0 10 10" refX="9" refY="5" markerUnits="strokeWidth" markerWidth="8" markerHeight="6" orient="auto"><path d="M 0 0 L 10 5 L 0 10 z"/></marker></defs></g><g class="edge"><path class="path" style="fill: none;" marker-end="url(#arrowhead52)" d="M257.412504196167,45.875L257.412504196167,46.64583333333333C257.412504196167,47.416666666666664,257.412504196167,48.95833333333333,257.412504196167,51.8125C257.412504196167,54.666666666666664,257.412504196167,58.83333333333333,257.412504196167,60.916666666666664L257.412504196167,63"/><defs><marker id="arrowhead52" viewBox="0 0 10 10" refX="9" refY="5" markerUnits="strokeWidth" markerWidth="8" markerHeight="6" orient="auto"><path d="M 0 0 L 10 5 L 0 10 z"/></marker></defs></g><g class="edge"><path class="path" style="fill: none;" marker-end="url(#arrowhead53)" d="M309.4541721343994,158.56345040465143L320.9243110020955,161.5528753372095C332.39444986979163,164.54230026976762,355.3347276051839,170.52115013488378,366.80486647288006,180.59390840077523C378.2750053405762,190.66666666666666,378.2750053405762,204.83333333333331,378.2750053405762,211.91666666666666L378.2750053405762,219"/><defs><marker id="arrowhead53" viewBox="0 0 10 10" refX="9" refY="5" markerUnits="strokeWidth" markerWidth="8" markerHeight="6" orient="auto"><path d="M 0 0 L 10 5 L 0 10 z"/></marker></defs></g><g class="edge"><path class="path" style="fill: none;" marker-end="url(#arrowhead54)" d="M309.4541721343994,150.83497723154088L347.6048663457234,155.11248102628406C385.7555605570475,159.38998482102724,462.05694897969556,167.9449924105136,500.20764319101966,179.30582953859013C538.3583374023438,190.66666666666666,538.3583374023438,204.83333333333331,538.3583374023436,211.91666666666666L538.3583374023438,219"/><defs><marker id="arrowhead54" viewBox="0 0 10 10" refX="9" refY="5" markerUnits="strokeWidth" markerWidth="8" markerHeight="6" orient="auto"><path d="M 0 0 L 10 5 L 0 10 z"/></marker></defs></g><g class="edge"><path class="path" style="fill: none;" marker-end="url(#arrowhead55)" d="M205.37083625793457,158.56345040465143L193.90069739023843,161.5528753372095C182.4305585225423,164.54230026976762,159.49028078715006,170.52115013488378,148.02014191945392,175.59390840077523C136.5500030517578,180.66666666666666,136.5500030517578,184.83333333333331,136.55000305175778,186.91666666666666L136.5500030517578,189"/><defs><marker id="arrowhead55" viewBox="0 0 10 10" refX="9" refY="5" markerUnits="strokeWidth" markerWidth="8" markerHeight="6" orient="auto"><path d="M 0 0 L 10 5 L 0 10 z"/></marker></defs></g><g class="edge"><path class="path" style="fill: none;" marker-end="url(#arrowhead56)" d="M205.37083625793457,150.60616429369443L165.30903021494547,154.92180357807868C125.24722417195638,159.23744286246296,45.123612085978195,167.86872143123145,5.0618060429890965,182.43436071561572C-35,197,-35,217.5,-35,237.99999999999997C-35,258.5,-35,279,4.74097283681234,293.53107767758036C44.48194567362468,308.0621553551607,123.96389134724934,316.6243107103215,163.70486418406168,320.9053883879019L203.44583702087402,325.18646606548225"/><defs><marker id="arrowhead56" viewBox="0 0 10 10" refX="9" refY="5" markerUnits="strokeWidth" markerWidth="8" markerHeight="6" orient="auto"><path d="M 0 0 L 10 5 L 0 10 z"/></marker></defs></g><g class="edge"><path class="path" style="fill: none;" marker-end="url(#arrowhead57)" d="M257.412504196167,350L257.412504196167,352.0833333333333C257.412504196167,354.16666666666663,257.412504196167,358.3333333333333,257.412504196167,361.8041666348775C257.412504196167,365.2749999364217,257.412504196167,368.0499998728434,257.412504196167,369.43749984105426L257.412504196167,370.82499980926514"/><defs><marker id="arrowhead57" viewBox="0 0 10 10" refX="9" refY="5" markerUnits="strokeWidth" markerWidth="8" markerHeight="6" orient="auto"><path d="M 0 0 L 10 5 L 0 10 z"/></marker></defs></g><g class="edge"><path class="path" style="fill: none;" marker-end="url(#arrowhead58)" d="M136.5500030517578,287L136.55000305175778,289.0833333333333C136.5500030517578,291.16666666666663,136.5500030517578,295.3333333333333,147.69930871327716,300.32247388571665C158.84861437479654,305.3116144380999,181.14722569783527,311.12322887619985,192.29653135935465,314.02903609524986L203.44583702087402,316.9348433142998"/><defs><marker id="arrowhead58" viewBox="0 0 10 10" refX="9" refY="5" markerUnits="strokeWidth" markerWidth="8" markerHeight="6" orient="auto"><path d="M 0 0 L 10 5 L 0 10 z"/></marker></defs></g><g class="edge"><path class="path" style="fill: none;" marker-end="url(#arrowhead59)" d="M378.2750053405762,257L378.2750053405762,264.0833333333333C378.2750053405762,271.16666666666663,378.2750053405762,285.3333333333333,367.12569967905677,295.32247388571665C355.9763940175374,305.3116144380999,333.67778269449866,311.12322887619985,322.5284770329793,314.02903609524986L311.37917137145996,316.9348433142998"/><defs><marker id="arrowhead59" viewBox="0 0 10 10" refX="9" refY="5" markerUnits="strokeWidth" markerWidth="8" markerHeight="6" orient="auto"><path d="M 0 0 L 10 5 L 0 10 z"/></marker></defs></g><g class="edge"><path class="path" style="fill: none;" marker-end="url(#arrowhead60)" d="M538.3583374023438,257L538.3583374023436,264.0833333333333C538.3583374023438,271.16666666666663,538.3583374023438,285.3333333333333,500.52847639719636,296.65819823900944C462.6986153920491,307.9830631446855,387.0388933817545,316.466126289371,349.20903237660724,320.70765786171376L311.37917137145996,324.9491894340565"/><defs><marker id="arrowhead60" viewBox="0 0 10 10" refX="9" refY="5" markerUnits="strokeWidth" markerWidth="8" markerHeight="6" orient="auto"><path d="M 0 0 L 10 5 L 0 10 z"/></marker></defs></g></g></g><style xmlns="http://www.w3.org/1999/xhtml">.node &gt; .shape {stroke: #555555;stroke-width: 0.6px;fill: #FFFFFF;} path {stroke: #555;background-color: #555;stroke-width: 1px;} .node.state.NotYetStarted &gt; .shape,.node.state.Container &gt; .shape {stroke-dasharray: 5 2;} .node.state.Failed &gt; .shape,rect.legend.Failed {fill: #DE322F;} .node.state.CaughtError &gt; .shape,rect.legend.CaughtError {fill: #FFA500;} .node.state.Succeeded &gt; .shape,rect.legend.Succeeded {fill: #2BD62E;} .node.state.InProgress &gt; .shape,rect.legend.InProgress {fill: #53c9ed;} .node.state.Cancelled &gt; .shape,rect.legend.Cancelled {fill: #dddddd;} .node.anchor &gt; .shape {fill: #FFDA75;} .node.state.hovered:not(.selected):not(.NotYetStarted) &gt; .shape,.node.selected &gt; .shape {stroke: #555555;stroke-width: 2px;} .node.state.Container.Failed &gt; .shape {fill: #EE9592;} .node.state.Container.CaughtError &gt; .shape {fill: #FFD27F;} .node.state.Container.Succeeded &gt; .shape {fill: #91EA9A;} .node.state.Container.InProgress &gt; .shape {fill :#A9E4F7;} .node.state.Container.Cancelled &gt; .shape {fill: #EEEEEE;} marker {fill: #555555;} .node.anchor,.node.state.NotYetStarted {cursor: default;} .node.state {cursor: pointer;} tspan .label {font-weight: normal;font-size: 12px;text-shadow: none;} </style></svg>